# 3ds Max Wavefront OBJ Exporter v0.97b - (c)2007 guruware
# File Created: 09.04.2017 22:11:13

mtllib transparent-cube.mtl

#
# object Box002
#

v  -89.5143 55.0591 63.2857
v  -89.5143 -48.6883 63.2857
v  99.0159 -48.6883 63.2857
v  99.0159 55.0591 63.2857
v  99.0159 -48.6883 -59.9840
v  -89.5143 -48.6883 -59.9840
v  -89.5143 55.0591 -59.9840
v  99.0159 55.0591 -59.9840
# 8 vertices

vn 0.0000 -0.0000 1.0000
vn 0.0000 0.0000 -1.0000
vn 0.0000 -1.0000 -0.0000
vn 1.0000 0.0000 -0.0000
vn 0.0000 1.0000 0.0000
vn -1.0000 0.0000 -0.0000
# 6 vertex normals

vt 0.0000 1.0000 0.0000
vt 0.0000 0.0000 0.0000
vt 1.0000 0.0000 0.0000
vt 1.0000 1.0000 0.0000
# 4 texture coords

g Box002
usemtl 01___Default
s 2
f 1/1/1 2/2/1 3/3/1 4/4/1 
s 4
f 5/2/2 6/3/2 7/4/2 8/1/2 
s 8
f 3/3/3 2/2/3 6/1/3 5/4/3 
s 16
f 4/3/4 3/2/4 5/1/4 8/4/4 
s 32
f 1/3/5 4/2/5 8/1/5 7/4/5 
s 64
f 2/3/6 1/2/6 7/1/6 6/4/6 
# 6 polygons

